<svg xmlns="http://www.w3.org/2000/svg" width="32.562" height="43.63" viewBox="0 0 32.562 43.63">
  <defs>
    <style>
      .cls-1 {
        fill: #fc8153;
        fill-rule: evenodd;
      }
    </style>
  </defs>
  <path class="cls-1" d="M405.954,1322.72h2.325v-4.65H375.721v4.65h2.325v2.34c0,3.74,6.712,13.95,7.035,14.69-0.316.74-7.035,10.95-7.035,14.68v2.59h-2.325v4.65h32.558v-4.65h-2.325v-2.59c0-3.74-6.719-13.9-7.069-14.69,0.35-.79,7.069-10.94,7.069-14.68v-2.34Zm-5.814,5.53a44.042,44.042,0,0,1-7.149,10.75h-2.025s-5.361-5.04-7.106-10.75v-1.46h16.28v1.46Z" transform="translate(-375.719 -1318.06)"/>
</svg>
