<svg xmlns="http://www.w3.org/2000/svg" width="14" height="10" viewBox="0 0 14 10">
  <defs>
    <style>
      .cls-1 {
        fill: #f47d50;
        fill-rule: evenodd;
      }
    </style>
  </defs>
  <path id="Forma_1" data-name="Forma 1" class="cls-1" d="M666.81,2571.85l-0.649-.65a0.687,0.687,0,0,0-.974,0l-6.808,6.84-3.566-3.58a0.687,0.687,0,0,0-.974,0l-0.649.65a0.7,0.7,0,0,0,0,.98l4.7,4.71a0.67,0.67,0,0,0,.485.21,0.663,0.663,0,0,0,.484-0.21l7.944-7.97A0.691,0.691,0,0,0,666.81,2571.85Z" transform="translate(-653 -2571)"/>
</svg>
