<svg xmlns="http://www.w3.org/2000/svg" width="35" height="53" viewBox="0 0 35 53">
  <defs>
    <style>
      .cls-1 {
        fill: #d0d0d0;
        fill-rule: evenodd;
      }
    </style>
  </defs>
  <path id="Forma_1" data-name="Forma 1" class="cls-1" d="M237.36,2378.98a7.022,7.022,0,0,1-.7-0.59l-0.493-.9c-2.639-4.11-.359-6.1,2.554-8.65,0.677-.59,1.378-1.21,2.02-1.88,3.9-4.45,7.548-9.53,7.252-13.88-0.236-3.46-4.416-6.12-2.647-9.41a5.361,5.361,0,0,1,3.555-2.92c3.5-.78,8,2.05,10.369,3.82a11.872,11.872,0,0,1,2.768,2.65c8,8.79-.558,9.61-8.845,20.68C249.465,2372.89,246.785,2385.97,237.36,2378.98Zm17.262-50.47a3.172,3.172,0,0,0-1-.44,3.675,3.675,0,0,0-3.331.99,6.625,6.625,0,0,0-1.951,3.42c-0.585,2.48.12,4.85,1.749,5.91a3.118,3.118,0,0,0,1,.44,3.659,3.659,0,0,0,3.251-.93,6.509,6.509,0,0,0,2.029-3.48C256.955,2331.94,256.251,2329.57,254.622,2328.51Zm5.52,5.76c-1.275-.46-2.74.48-3.336,2.15a3.1,3.1,0,0,0,.811,3.62,2.365,2.365,0,0,0,.37.19,2.093,2.093,0,0,0,1.6-.1,3.558,3.558,0,0,0,1.738-2.05C261.912,2336.46,261.455,2334.81,260.142,2334.27Zm4.72,3.97a2.443,2.443,0,0,0-3.228.97,3.155,3.155,0,0,0-.647,1.85,1.928,1.928,0,0,0,.76,1.61l0.043,0.02a2.469,2.469,0,0,0,3.193-1.01,3.172,3.172,0,0,0,.639-1.84A1.894,1.894,0,0,0,264.862,2338.24Zm3.727,6.3a1.92,1.92,0,0,0-.413-1.69c-0.808-.88-2.3-0.72-3.391.28a3.027,3.027,0,0,0-1.024,2.03,1.844,1.844,0,0,0,.452,1.34,1.916,1.916,0,0,0,.316.27,2.647,2.647,0,0,0,3.078-.54A3.2,3.2,0,0,0,268.589,2344.54Zm1.376,4.44a1.632,1.632,0,0,0-.323-1.39l-0.288-.24a2.115,2.115,0,0,0-2.508.44,2.517,2.517,0,0,0-.8,1.36,1.608,1.608,0,0,0,.358,1.42l0.244,0.21a2.126,2.126,0,0,0,2.517-.44A2.554,2.554,0,0,0,269.965,2348.98Z" transform="translate(-235 -2327.97)"/>
</svg>
