<svg xmlns="http://www.w3.org/2000/svg" width="24" height="24" viewBox="0 0 24 24">
  <defs>
    <style>
      .cls-1 {
        fill: #fff;
        fill-opacity: 0.5;
        fill-rule: evenodd;
      }
    </style>
  </defs>
  <path id="Forma_1" data-name="Forma 1" class="cls-1" d="M1338,3744a12,12,0,1,0,12,12A12,12,0,0,0,1338,3744Zm7.26,8.8v0.43a10.322,10.322,0,0,1-10.42,10.42,10.439,10.439,0,0,1-5.62-1.64,0.1,0.1,0,0,1-.04-0.11,0.11,0.11,0,0,1,.1-0.06,6.06,6.06,0,0,0,.85.05,7.151,7.151,0,0,0,4.27-1.39,3.706,3.706,0,0,1-3.23-2.57,0.063,0.063,0,0,1,.02-0.08,0.067,0.067,0,0,1,.08-0.03,3.445,3.445,0,0,0,1.24.01,3.718,3.718,0,0,1-2.62-3.55v-0.05a0.084,0.084,0,0,1,.04-0.07,0.075,0.075,0,0,1,.09,0,3.743,3.743,0,0,0,1.3.42,3.746,3.746,0,0,1-.9-4.79,0.1,0.1,0,0,1,.07-0.04,0.083,0.083,0,0,1,.08.03,10.285,10.285,0,0,0,7.31,3.76,3.64,3.64,0,0,1-.07-0.74,3.72,3.72,0,0,1,6.4-2.58,7.123,7.123,0,0,0,2.23-.86,0.074,0.074,0,0,1,.1.01,0.069,0.069,0,0,1,.03.09,3.673,3.673,0,0,1-1.3,1.84,7.009,7.009,0,0,0,1.67-.51,0.113,0.113,0,0,1,.11.03,0.108,0.108,0,0,1,0,.11A7.579,7.579,0,0,1,1345.26,3752.8Z" transform="translate(-1326 -3744)"/>
</svg>
