<svg xmlns="http://www.w3.org/2000/svg" width="24" height="24" viewBox="0 0 24 24">
  <defs>
    <style>
      .cls-1 {
        fill: #fff;
        fill-opacity: 0.5;
        fill-rule: evenodd;
      }
    </style>
  </defs>
  <path id="Forma_1" data-name="Forma 1" class="cls-1" d="M1236,3744a12,12,0,1,0,12,12A12,12,0,0,0,1236,3744Zm6.09,13.3a21.536,21.536,0,0,1,1.65,1.66,4.963,4.963,0,0,1,.59.85,0.616,0.616,0,0,1-.37.96h-2.46a1.928,1.928,0,0,1-1.57-.64c-0.34-.35-0.65-0.72-0.98-1.07a2.1,2.1,0,0,0-.44-0.4,0.513,0.513,0,0,0-.82.2,2.548,2.548,0,0,0-.26,1.15,0.654,0.654,0,0,1-.78.76,6.338,6.338,0,0,1-3.52-.76,7.616,7.616,0,0,1-2.37-2.22,29.64,29.64,0,0,1-3.11-5.55c-0.2-.44-0.06-0.67.43-0.68q1.2-.03,2.4,0a0.693,0.693,0,0,1,.67.5,15.713,15.713,0,0,0,1.63,3.02,2.676,2.676,0,0,0,.62.68,0.38,0.38,0,0,0,.64-0.19,2.3,2.3,0,0,0,.14-0.63,9.777,9.777,0,0,0-.04-2.23,0.916,0.916,0,0,0-.79-0.84c-0.24-.05-0.2-0.14-0.09-0.27a0.9,0.9,0,0,1,.76-0.37l2.77-.01a0.674,0.674,0,0,1,.6.73v3.08a0.916,0.916,0,0,0,.39.79,0.545,0.545,0,0,0,.56-0.27,9.7,9.7,0,0,0,1.56-2.4c0.19-.38.35-0.78,0.51-1.17a0.6,0.6,0,0,1,.63-0.43h2.67a1.927,1.927,0,0,1,.24.01,0.47,0.47,0,0,1,.44.71,6.572,6.572,0,0,1-1.07,1.85c-0.44.62-.92,1.21-1.36,1.83A0.837,0.837,0,0,0,1242.09,3757.3Z" transform="translate(-1224 -3744)"/>
</svg>
