<svg xmlns="http://www.w3.org/2000/svg" width="24" height="24" viewBox="0 0 24 24">
  <defs>
    <style>
      .cls-1 {
        fill: #fff;
        fill-opacity: 0.5;
        fill-rule: evenodd;
      }
    </style>
  </defs>
  <path id="Forma_1" data-name="Forma 1" class="cls-1" d="M1303.46,3752.27c0-1.67-1-4.25-2.91-4.25a2.151,2.151,0,0,0-1.61.76,2.637,2.637,0,0,0-.51,1.71c0,1.55.9,4.11,2.88,4.11A2.118,2.118,0,0,0,1303.46,3752.27Zm-1.25,6.07a4.271,4.271,0,0,0-.53-0.02,8.928,8.928,0,0,0-2.42.37,2.586,2.586,0,0,0-1.98,2.38c0,1.64,1.59,2.82,4.06,2.82,2.21,0,3.38-1.07,3.38-2.5C1304.72,3760.21,1303.96,3759.59,1302.21,3758.34ZM1303,3744a12,12,0,1,0,12,12A12,12,0,0,0,1303,3744Zm-2.8,20.86c-3.34,0-4.95-1.6-4.95-3.31a3.3,3.3,0,0,1,1.77-2.81,9.919,9.919,0,0,1,4.41-1.07,2.367,2.367,0,0,1-.69-1.57,2.024,2.024,0,0,1,.23-0.9c-0.26.02-.51,0.05-0.74,0.05a3.657,3.657,0,0,1-3.83-3.63,4.189,4.189,0,0,1,1.48-3.1,7.047,7.047,0,0,1,4.35-1.38h4.54l-1.49.95h-1.43a3.766,3.766,0,0,1-.3,6.39,1.642,1.642,0,0,0-.65,1.14,1.289,1.289,0,0,0,.6.99l0.83,0.65c1.02,0.85,1.94,1.64,1.94,3.23C1306.27,3762.66,1304.17,3764.86,1300.2,3764.86Zm9.95-9.14v2.32h-1.14v-2.32h-2.3v-1.16h2.3v-2.3h1.14v2.3h2.32v1.16h-2.32Z" transform="translate(-1291 -3744)"/>
</svg>
