<svg xmlns="http://www.w3.org/2000/svg" width="20" height="20.62" viewBox="0 0 20 20.62">
  <defs>
    <style>
      .cls-1 {
        fill: #fff;
        fill-rule: evenodd;
      }
    </style>
  </defs>
  <path id="Forma_1" data-name="Forma 1" class="cls-1" d="M666.868,2133.18h-4.905a7.31,7.31,0,0,0-5.061,1.61,4.881,4.881,0,0,0-1.71,3.61,4.237,4.237,0,0,0,4.442,4.22c0.278,0,.585-0.03.856-0.05l-0.04.1a2.2,2.2,0,0,0-.226.95,2.719,2.719,0,0,0,.756,1.77l0.047,0.06h-0.083a11.364,11.364,0,0,0-5.029,1.24,3.861,3.861,0,0,0-2.062,3.28c0,1.91,1.779,3.85,5.754,3.85,4.622,0,7.041-2.56,7.041-5.09,0-1.87-1.092-2.79-2.252-3.77l-0.978-.76a1.462,1.462,0,0,1-.678-1.15,1.807,1.807,0,0,1,.708-1.27l0.035-.04c1.056-.83,2.253-1.78,2.253-3.83a4.522,4.522,0,0,0-1.9-3.63h1.628a0.062,0.062,0,0,0,.056-0.02l1.4-.88a0.1,0.1,0,0,0,.046-0.12A0.117,0.117,0,0,0,666.868,2133.18Zm-5.948,19.51c-2.818,0-4.711-1.32-4.711-3.29,0-1.28.775-2.21,2.3-2.77a10.837,10.837,0,0,1,2.814-.43,3.854,3.854,0,0,1,.614.03c1.971,1.41,2.919,2.14,2.919,3.55C664.855,2151.57,663.347,2152.69,660.92,2152.69Zm-0.027-10.82c-2.364,0-3.346-3.12-3.346-4.79a3.05,3.05,0,0,1,.589-1.99,2.474,2.474,0,0,1,1.874-.89c2.171,0,3.372,2.93,3.372,4.95a2.78,2.78,0,0,1-.669,1.97A2.738,2.738,0,0,1,660.893,2141.87Zm12.849,0.95h-2.584v-2.58a0.109,0.109,0,0,0-.106-0.11H669.94a0.109,0.109,0,0,0-.107.11v2.58h-2.571a0.108,0.108,0,0,0-.106.11v1.13a0.1,0.1,0,0,0,.106.1h2.571v2.6a0.109,0.109,0,0,0,.107.11h1.112a0.109,0.109,0,0,0,.106-0.11v-2.6h2.584a0.1,0.1,0,0,0,.107-0.1v-1.13A0.109,0.109,0,0,0,673.742,2142.82Z" transform="translate(-653.844 -2133.19)"/>
</svg>
