<svg id="money" xmlns="http://www.w3.org/2000/svg" width="56.406" height="70.69" viewBox="0 0 56.406 70.69">
  <defs>
    <style>
      .cls-1, .cls-2 {
        fill: #fc8153;
      }

      .cls-1 {
        fill-rule: evenodd;
      }

      .cls-3 {
        font-size: 16px;
        fill: #fff;
        font-family: Roboto;
      }
    </style>
  </defs>
  <path class="cls-1" d="M767.461,1357.49a20.265,20.265,0,0,0,4.137,2.65,4.381,4.381,0,0,1,1.6.79c0.471,0.51.072,1.3-.116,1.85a17.809,17.809,0,0,0-.556,2.13c-0.146.7,0.411,0.78,0.98,0.73,1.14-.09,2.3.1,3.433-0.05,1.573-.21,2.045-1.7,2.992-2.76a1.853,1.853,0,0,1,1.4-.78c0.924,0.01,1.847.19,2.777,0.19,0.889,0,1.778-.05,2.664-0.11,0.362-.03,1.267-0.25,1.359.3a3.091,3.091,0,0,1-.193,1.13c-0.106.42-.218,0.85-0.283,1.28-0.119.79,0.492,0.77,1.113,0.74a21.629,21.629,0,0,1,2.546-.02,2.454,2.454,0,0,0,2.1-.51c0.447-.49.788-1.07,1.236-1.57,0.607-.68,1.16-1.37,1.721-2.09a9.491,9.491,0,0,1,1.618-1.71,16.988,16.988,0,0,1,2.021-1.2,15.57,15.57,0,0,0,3.822-3,17.567,17.567,0,0,0,4.476-8.57,16.678,16.678,0,0,0,.319-5.08,3.629,3.629,0,0,1,.14-2.06,7.72,7.72,0,0,1,1.664-1.58,3.179,3.179,0,0,0,.417-3.95c-0.1.18,0.073,0.85,0.345,0.8a5.732,5.732,0,0,0-.345-0.8c-0.517.94-1.205,2.34-2.531,1.98-1.165-.32-1.416-1.77-1.914-2.68a17.141,17.141,0,0,0-2.8-4.08,28.871,28.871,0,0,0-4.068-3.4c-5.3-3.64-12.008-4.51-18.3-3.93a25.016,25.016,0,0,0-9.515,2.63,18.2,18.2,0,0,0-2.042,1.27c-0.715.52-1.366,1.14-2.093,1.63a3.992,3.992,0,0,1-2,.57c-0.965.07-1.923,0.21-2.875,0.37-0.88.15-1.756,0.33-2.635,0.48a5.885,5.885,0,0,0-1.96.38c-0.617.37,0.845,2.15,1.11,2.46a10.265,10.265,0,0,0,1.713,1.58c0.563,0.41,1.3.54,1.014,1.4a14.154,14.154,0,0,1-.964,1.82,6.229,6.229,0,0,1-1.316,1.97,4.58,4.58,0,0,1-2.276.92c-0.638.1-1.708-.08-2.158,0.48-0.57.71-.2,2.01-0.054,2.81a17.71,17.71,0,0,0,.892,3.26,17.291,17.291,0,0,0,1.1,2.49c0.509,0.87,1.464.97,2.357,1.31,1.809,0.69,2.94,2.37,4.086,3.83m33.279-3.5a1.34,1.34,0,0,0-.139-0.23,1.48,1.48,0,0,0,.139.23c-0.057-.12-0.013-0.01,0,0-0.049-.1-0.01,0,0,0-0.043-.09-0.007,0,0,0C796.865,1350.21,796.905,1350.29,796.9,1350.29Zm-31.606,5.6h0Z" transform="translate(-754.938 -1294.97)"/>
  <ellipse class="cls-2" cx="23.155" cy="7.56" rx="7.563" ry="7.56"/>
  <text id="_" data-name="$" class="cls-3" transform="translate(20.204 10.872) scale(0.581)">$</text>
  <circle class="cls-2" cx="32.452" cy="19.765" r="5.235"/>
  <text id="_2" data-name="$" class="cls-3" transform="translate(30.416 22.066) scale(0.403)">$</text>
</svg>
