<svg xmlns="http://www.w3.org/2000/svg" width="44.91" height="58.12" viewBox="0 0 44.91 58.12">
  <defs>
    <style>
      .cls-1 {
        fill: #fc8153;
        fill-rule: evenodd;
      }
    </style>
  </defs>
  <path id="Forma_1" data-name="Forma 1" class="cls-1" d="M1192.22,1330.48c-0.5-11.59-9.14-20.83-19.76-20.83s-19.27,9.24-19.77,20.83a3.624,3.624,0,0,0-2.7,3.49V1343a3.63,3.63,0,0,0,7.26,0h0v-0.7c1.72,7.99,5.88,18.33,15.21,18.33s13.48-10.33,15.2-18.32V1343a3.608,3.608,0,0,0,2.47,3.42c-0.1,1.83-1.09,11.49-10.53,15.52a2.306,2.306,0,0,0-2.02-.23l-4.15,1.54a2.33,2.33,0,1,0,1.62,4.37l4.15-1.53a2.35,2.35,0,0,0,1.52-2.08c10.57-4.68,11.66-15.83,11.76-17.6a3.634,3.634,0,0,0,2.44-3.41v-9.03A3.633,3.633,0,0,0,1192.22,1330.48Zm-19.76-13.94c-8.26,0-15.07,6.55-16.13,15.04a3.42,3.42,0,0,0-.99-0.78c0.35-10.12,7.87-18.21,17.12-18.21s16.76,8.09,17.11,18.21a3.42,3.42,0,0,0-.99.78C1187.52,1323.09,1180.71,1316.54,1172.46,1316.54Z" transform="translate(-1150 -1309.66)"/>
</svg>
