<svg xmlns="http://www.w3.org/2000/svg" width="43" height="66" viewBox="0 0 43 66">
  <defs>
    <style>
      .cls-1 {
        fill: #fc8153;
        fill-rule: evenodd;
      }
    </style>
  </defs>
  <path id="Forma_1" data-name="Forma 1" class="cls-1" d="M996.61,251.607a2.406,2.406,0,0,0,4.34.389,14.457,14.457,0,0,1,6.71-6.342,83.755,83.755,0,0,1-5.47-16.382C998.47,232.023,991.943,238.966,996.61,251.607Zm34.23-22.3a83.552,83.552,0,0,1-5.47,16.357,14.573,14.573,0,0,1,6.67,6.327,2.4,2.4,0,0,0,4.33-.393C1041.02,239.023,1034.56,232.09,1030.84,229.308Zm-1.1-12.323a38,38,0,0,0-11.25-27.089,3.106,3.106,0,0,0-2.2-.9,3.056,3.056,0,0,0-2.17.938,38.542,38.542,0,0,0-10.83,27.045s-0.69,12.817,7.95,30.421h10.55C1030.43,229.8,1029.74,216.985,1029.74,216.985Zm-16.68-11.22a16.13,16.13,0,0,0-1.44,10.211,2.524,2.524,0,0,1-2.09,2.878,2.665,2.665,0,0,1-.38.029,2.5,2.5,0,0,1-2.47-2.135c-1.25-8.121,2.01-13.438,2.15-13.66a2.488,2.488,0,0,1,3.45-.785A2.528,2.528,0,0,1,1013.06,205.765Zm2.2-11.889a2.81,2.81,0,1,1-2.79,2.809A2.8,2.8,0,0,1,1015.26,193.876Zm-6.18,56.521h15.06V255h-15.06v-4.6Z" transform="translate(-995 -189)"/>
</svg>
