<svg xmlns="http://www.w3.org/2000/svg" width="24.532" height="14" viewBox="0 0 24.532 14">
  <defs>
    <style>
      .cls-1 {
        fill: #fff;
        fill-rule: evenodd;
      }
    </style>
  </defs>
  <path id="Forma_1" data-name="Forma 1" class="cls-1" d="M672.562,2048.27c-0.03-.06-0.057-0.11-0.083-0.16a12.979,12.979,0,0,0-2.441-2.82l-0.025-.03-0.013-.01-0.013-.01h-0.013a14.587,14.587,0,0,1-1.035-1.05,0.978,0.978,0,0,1-.179-1.03,9.306,9.306,0,0,1,1.15-1.68c0.35-.45.626-0.81,0.831-1.09,1.474-1.95,2.113-3.21,1.917-3.75l-0.076-.13a0.707,0.707,0,0,0-.4-0.21,1.955,1.955,0,0,0-.818-0.03l-3.681.02a0.455,0.455,0,0,0-.256.01,1.169,1.169,0,0,0-.166.04l-0.064.03-0.051.04a0.52,0.52,0,0,0-.14.13,0.944,0.944,0,0,0-.128.23,20.473,20.473,0,0,1-1.367,2.87c-0.315.53-.605,0.99-0.869,1.37a6.3,6.3,0,0,1-.665.86,4.9,4.9,0,0,1-.485.44,0.459,0.459,0,0,1-.333.14,1.434,1.434,0,0,1-.217-0.05,0.882,0.882,0,0,1-.287-0.31,1.38,1.38,0,0,1-.147-0.5,5.132,5.132,0,0,1-.045-0.52c0-.14,0-0.35.006-0.61s0.013-.44.013-0.54q0-.48.019-1.05c0.013-.38.023-0.68,0.032-0.9s0.013-.46.013-0.71a2.957,2.957,0,0,0-.045-0.58,2.11,2.11,0,0,0-.134-0.41,0.669,0.669,0,0,0-.262-0.3,1.471,1.471,0,0,0-.428-0.18,8.818,8.818,0,0,0-1.725-.16,8.407,8.407,0,0,0-3.055.3,1.909,1.909,0,0,0-.485.39q-0.231.285-.064,0.3a1.579,1.579,0,0,1,1.086.55l0.077,0.16a2.372,2.372,0,0,1,.179.59,5.966,5.966,0,0,1,.115.93,10.11,10.11,0,0,1,0,1.6c-0.043.44-.083,0.78-0.122,1.03a2.017,2.017,0,0,1-.172.6,1.7,1.7,0,0,1-.154.28,0.212,0.212,0,0,1-.063.07,1.011,1.011,0,0,1-.346.06,0.806,0.806,0,0,1-.434-0.18,3.027,3.027,0,0,1-.53-0.49,6.331,6.331,0,0,1-.62-0.88,14.456,14.456,0,0,1-.716-1.32l-0.2-.38c-0.128-.23-0.3-0.58-0.524-1.04s-0.418-.89-0.588-1.32a0.866,0.866,0,0,0-.307-0.41l-0.064-.04a1.1,1.1,0,0,0-.2-0.11,2.636,2.636,0,0,0-.294-0.08l-3.5.03a0.9,0.9,0,0,0-.728.24l-0.051.08a0.391,0.391,0,0,0-.039.2,1.086,1.086,0,0,0,.077.35c0.511,1.2,1.067,2.36,1.668,3.47s1.122,2.02,1.565,2.7,0.895,1.32,1.355,1.93,0.764,0.99.913,1.16,0.267,0.3.352,0.38l0.32,0.31a7.412,7.412,0,0,0,.9.74q0.6,0.42,1.317.84a7.219,7.219,0,0,0,1.68.68,6.063,6.063,0,0,0,1.866.21h1.47a1.045,1.045,0,0,0,.677-0.28l0.051-.07a0.89,0.89,0,0,0,.1-0.23,1.365,1.365,0,0,0,.045-0.36,4.3,4.3,0,0,1,.082-0.99,2.643,2.643,0,0,1,.218-0.66,1.589,1.589,0,0,1,.275-0.38,1.04,1.04,0,0,1,.217-0.18c0.043-.02.076-0.04,0.1-0.05a0.808,0.808,0,0,1,.722.2,4.358,4.358,0,0,1,.78.74q0.365,0.45.875,0.99a5.874,5.874,0,0,0,.895.82l0.255,0.15a2.956,2.956,0,0,0,.665.29,1.522,1.522,0,0,0,.716.06l3.271-.05a1.551,1.551,0,0,0,.754-0.16,0.665,0.665,0,0,0,.319-0.35,1,1,0,0,0,.007-0.44A1.733,1.733,0,0,0,672.562,2048.27Z" transform="translate(-648.156 -2035.63)"/>
</svg>
