<svg xmlns="http://www.w3.org/2000/svg" width="47.85" height="47.97" viewBox="0 0 47.85 47.97">
  <defs>
    <style>
      .cls-1 {
        fill: #f47d50;
        fill-rule: evenodd;
      }
    </style>
  </defs>
  <path id="Forma_1" data-name="Forma 1" class="cls-1" d="M1232.7,2693.64l-2.82-4.49,1.67-5.04a1.524,1.524,0,0,0-.68-1.8l-4.56-2.66-0.84-5.24a1.523,1.523,0,0,0-1.43-1.28l-5.27-.21-3.16-4.25a1.484,1.484,0,0,0-1.85-.46l-4.76,2.28-4.76-2.29a1.5,1.5,0,0,0-1.85.47l-3.16,4.25-5.27.21a1.523,1.523,0,0,0-1.43,1.28l-0.84,5.24-4.56,2.66a1.524,1.524,0,0,0-.68,1.8l1.67,5.04-2.82,4.49a1.544,1.544,0,0,0,.23,1.91l3.81,3.68-0.43,5.29a1.513,1.513,0,0,0,1.08,1.59l5.06,1.47,2.06,4.9a1.5,1.5,0,0,0,1.7.89l5.16-1.06,4.07,3.37a1.525,1.525,0,0,0,1.92,0l4.07-3.37,5.16,1.06a1.516,1.516,0,0,0,1.7-.89l2.05-4.9,5.07-1.47a1.5,1.5,0,0,0,1.08-1.58l-0.43-5.3,3.81-3.68a1.544,1.544,0,0,0,.23-1.91h0Zm-12.79-7.33-10.56,15.98a2.089,2.089,0,0,1-1.64.99,2.627,2.627,0,0,1-1.73-.79l-7.76-7.95a1.419,1.419,0,0,1,0-1.97l1.91-1.97a1.358,1.358,0,0,1,1.92,0l5.05,5.18,8.33-12.59a1.327,1.327,0,0,1,1.88-.37l2.25,1.56A1.419,1.419,0,0,1,1219.91,2686.31Z" transform="translate(-1185.06 -2668.06)"/>
</svg>
